<?xml version="1.0" encoding="UTF-8" standalone="no"?>
<svg
   width="1500"
   height="250"
   viewBox="0 0 361 44"
   fill="none"
   version="1.1"
   id="svg79"
   sodipodi:docname="logo.svg"
   inkscape:version="1.1.2 (08b2f3d93c, 2022-04-05)"
   xmlns:inkscape="http://www.inkscape.org/namespaces/inkscape"
   xmlns:sodipodi="http://sodipodi.sourceforge.net/DTD/sodipodi-0.dtd"
   xmlns="http://www.w3.org/2000/svg"
   xmlns:svg="http://www.w3.org/2000/svg">
  <sodipodi:namedview
     id="namedview81"
     pagecolor="#ffffff"
     bordercolor="#666666"
     borderopacity="1.0"
     inkscape:pageshadow="2"
     inkscape:pageopacity="0.0"
     inkscape:pagecheckerboard="0"
     showgrid="false"
     inkscape:zoom="0.92333333"
     inkscape:cx="750"
     inkscape:cy="125.09025"
     inkscape:window-width="1920"
     inkscape:window-height="1000"
     inkscape:window-x="0"
     inkscape:window-y="44"
     inkscape:window-maximized="1"
     inkscape:current-layer="svg79" />
  <mask
     id="path-1-inside-1"
     fill="white">
    <path
       d="M47.1816 43.9268H43.3767V13.178C43.3767 11.8602 43.123 10.64 42.6157 9.51747C42.1083 8.34609 41.3981 7.32113 40.4849 6.44259C39.5717 5.56406 38.5063 4.88075 37.2887 4.39268C36.1218 3.9046 34.8535 3.66057 33.4837 3.66057H13.6979C12.3281 3.66057 11.0344 3.9046 9.81682 4.39268C8.64997 4.88075 7.60994 5.56406 6.69675 6.44259C5.78355 7.32113 5.07329 8.34609 4.56596 9.51747C4.05863 10.64 3.80497 11.8602 3.80497 13.178V43.9268H0V13.178C0 11.3722 0.35513 9.66389 1.06539 8.05324C1.77565 6.44259 2.73958 5.05158 3.95717 3.8802C5.22549 2.66001 6.69675 1.70826 8.37093 1.02496C10.0451 0.341653 11.8208 0 13.6979 0H33.4837C35.4116 0 37.1872 0.341653 38.8107 1.02496C40.4849 1.70826 41.9308 2.66001 43.1484 3.8802C44.4167 5.05158 45.406 6.44259 46.1162 8.05324C46.8265 9.66389 47.1816 11.3722 47.1816 13.178V43.9268H43.3767H47.1816ZM24.3518 5.12479H33.4837C34.6506 5.12479 35.7414 5.34442 36.756 5.78369C37.7707 6.17415 38.6585 6.73544 39.4195 7.46755C40.1805 8.19966 40.7639 9.0538 41.1698 10.0299C41.6264 11.0061 41.8547 12.0555 41.8547 13.178V43.9268H38.0497V13.178C38.0497 11.9578 37.5931 10.9329 36.6799 10.1032C35.8175 9.22462 34.7521 8.78536 33.4837 8.78536H28.1568V43.9268H24.3518V5.12479ZM22.8298 5.12479V43.9268H19.0248V8.78536H13.6979C12.4296 8.78536 11.3388 9.22462 10.4256 10.1032C9.56316 10.9329 9.13193 11.9578 9.13193 13.178V43.9268H5.32696V13.178C5.32696 12.0555 5.52989 11.0061 5.93575 10.0299C6.39235 9.0538 7.00114 8.19966 7.76214 7.46755C8.52313 6.73544 9.41096 6.17415 10.4256 5.78369C11.4403 5.34442 12.531 5.12479 13.6979 5.12479H22.8298Z"
       id="path2" />
    <path
       d="M55.0666 0H87.0284V3.66057H58.8716V30.7487C58.8716 32.0666 59.1252 33.3111 59.6326 34.4825C60.1399 35.6051 60.8248 36.6057 61.6873 37.4842C62.6005 38.3627 63.6658 39.046 64.8834 39.5341C66.101 40.0222 67.3947 40.2662 68.7645 40.2662H87.0284V43.9268H68.7645C66.8874 43.9268 65.1117 43.5851 63.4375 42.9018C61.7634 42.2185 60.2921 41.2912 59.0238 40.1198C57.8062 38.8996 56.8423 37.4842 56.132 35.8735C55.4217 34.2629 55.0666 32.5546 55.0666 30.7487V0ZM87.0284 17.5707V21.2313H60.3936V5.12479H87.0284V8.78536H64.1985V17.5707H87.0284ZM87.0284 26.3561H64.1985V30.7487C64.1985 31.9689 64.6298 33.0183 65.4922 33.8968C66.3547 34.7266 67.4454 35.1414 68.7645 35.1414H87.0284V38.802H68.7645C67.5976 38.802 66.5069 38.6068 65.4922 38.2163C64.4776 37.777 63.5897 37.1913 62.8288 36.4592C62.0678 35.7271 61.459 34.873 61.0024 33.8968C60.5965 32.9207 60.3936 31.8713 60.3936 30.7487V22.6955H87.0284V26.3561Z"
       id="path4" />
    <path
       d="M94.1165 3.66057V0H129.122V3.66057H94.1165ZM107.053 43.9268V8.78536H94.1165V5.12479H110.858V43.9268H107.053ZM112.38 5.12479H129.122V8.78536H116.185V43.9268H112.38V5.12479Z"
       id="path6" />
    <path
       d="M170.396 43.9268H166.591V13.178C166.591 11.8602 166.337 10.64 165.83 9.51747C165.322 8.34609 164.612 7.32113 163.699 6.44259C162.786 5.56406 161.72 4.88075 160.503 4.39268C159.336 3.9046 158.068 3.66057 156.698 3.66057H149.088C147.718 3.66057 146.424 3.9046 145.207 4.39268C144.04 4.88075 143 5.56406 142.087 6.44259C141.174 7.32113 140.463 8.34609 139.956 9.51747C139.449 10.64 139.195 11.8602 139.195 13.178V43.9268H135.39V13.178C135.39 11.3722 135.745 9.66389 136.455 8.05324C137.166 6.44259 138.13 5.05158 139.347 3.8802C140.615 2.66001 142.087 1.70826 143.761 1.02496C145.435 0.341653 147.211 0 149.088 0H156.698C158.575 0 160.351 0.341653 162.025 1.02496C163.699 1.70826 165.145 2.66001 166.362 3.8802C167.631 5.05158 168.62 6.44259 169.33 8.05324C170.041 9.66389 170.396 11.3722 170.396 13.178V43.9268ZM156.698 5.12479C157.865 5.12479 158.955 5.34442 159.97 5.78369C160.985 6.17415 161.873 6.73544 162.634 7.46755C163.395 8.19966 163.978 9.0538 164.384 10.0299C164.84 11.0061 165.069 12.0555 165.069 13.178V25.624H140.717V13.178C140.717 12.0555 140.92 11.0061 141.326 10.0299C141.782 9.0538 142.391 8.19966 143.152 7.46755C143.913 6.73544 144.801 6.17415 145.816 5.78369C146.83 5.34442 147.921 5.12479 149.088 5.12479H156.698ZM161.264 13.178C161.264 11.9578 160.807 10.9329 159.894 10.1032C159.032 9.22462 157.966 8.78536 156.698 8.78536H149.088C147.82 8.78536 146.729 9.22462 145.816 10.1032C144.953 10.9329 144.522 11.9578 144.522 13.178V21.9634H161.264V13.178ZM140.717 27.0882H165.069V43.9268H161.264V30.7487H144.522V43.9268H140.717V27.0882Z"
       id="path8" />
    <path
       d="M179.341 0H199.126C201.054 0 202.83 0.341653 204.453 1.02496C206.128 1.70826 207.573 2.66001 208.791 3.8802C210.059 5.05158 211.049 6.44259 211.759 8.05324C212.469 9.66389 212.824 11.3722 212.824 13.178V21.9634C212.824 23.7693 212.469 25.4775 211.759 27.0882C211.049 28.6988 210.059 30.1143 208.791 31.3344C207.573 32.5058 206.128 33.4332 204.453 34.1165C202.83 34.7998 201.054 35.1414 199.126 35.1414H188.473V43.9268H184.668V31.4809H199.126C200.496 31.4809 201.765 31.2368 202.931 30.7487C204.149 30.2607 205.214 29.5774 206.128 28.6988C207.041 27.8203 207.751 26.8197 208.258 25.6972C208.766 24.5258 209.019 23.2812 209.019 21.9634V13.178C209.019 11.8602 208.766 10.64 208.258 9.51747C207.751 8.34609 207.041 7.32113 206.128 6.44259C205.214 5.56406 204.149 4.88075 202.931 4.39268C201.765 3.9046 200.496 3.66057 199.126 3.66057H183.146V43.9268H179.341V0ZM184.668 30.0166V5.12479H199.126C200.293 5.12479 201.384 5.34442 202.399 5.78369C203.413 6.17415 204.301 6.73544 205.062 7.46755C205.823 8.19966 206.407 9.0538 206.812 10.0299C207.269 11.0061 207.497 12.0555 207.497 13.178V21.9634C207.497 23.086 207.269 24.1353 206.812 25.1115C206.407 26.0876 205.823 26.9418 205.062 27.6739C204.301 28.406 203.413 28.9917 202.399 29.4309C201.384 29.8214 200.293 30.0166 199.126 30.0166H184.668ZM188.473 26.3561H199.126C200.395 26.3561 201.46 25.9412 202.323 25.1115C203.236 24.2329 203.692 23.1836 203.692 21.9634V13.178C203.692 11.9578 203.236 10.9329 202.323 10.1032C201.46 9.22462 200.395 8.78536 199.126 8.78536H188.473V26.3561Z"
       id="path10" />
    <path
       d="M247.732 35.1414V38.802H226.424C225.765 38.802 225.207 38.6068 224.75 38.2163C224.344 37.777 224.141 37.2402 224.141 36.6057V0H227.946V35.1414H247.732ZM218.814 0H222.619V36.6057C222.619 37.6306 222.974 38.5092 223.685 39.2413C224.446 39.9246 225.359 40.2662 226.424 40.2662H247.732V43.9268H226.424C224.293 43.9268 222.492 43.2191 221.021 41.8037C219.55 40.3882 218.814 38.6556 218.814 36.6057V0Z"
       id="path12" />
    <path
       d="M253.256 0H285.218V3.66057H257.061V30.7487C257.061 32.0666 257.315 33.3111 257.822 34.4825C258.33 35.6051 259.015 36.6057 259.877 37.4842C260.79 38.3627 261.856 39.046 263.073 39.5341C264.291 40.0222 265.585 40.2662 266.954 40.2662H285.218V43.9268H266.954C265.077 43.9268 263.302 43.5851 261.627 42.9018C259.953 42.2185 258.482 41.2912 257.214 40.1198C255.996 38.8996 255.032 37.4842 254.322 35.8735C253.612 34.2629 253.256 32.5546 253.256 30.7487V0ZM285.218 17.5707V21.2313H258.583V5.12479H285.218V8.78536H262.388V17.5707H285.218ZM285.218 26.3561H262.388V30.7487C262.388 31.9689 262.82 33.0183 263.682 33.8968C264.545 34.7266 265.635 35.1414 266.954 35.1414H285.218V38.802H266.954C265.787 38.802 264.697 38.6068 263.682 38.2163C262.667 37.777 261.78 37.1913 261.019 36.4592C260.258 35.7271 259.649 34.873 259.192 33.8968C258.786 32.9207 258.583 31.8713 258.583 30.7487V22.6955H285.218V26.3561Z"
       id="path14" />
    <path
       d="M306.115 11.1281L312.812 14.7887L309.692 17.2779L304.289 14.3494C302.97 13.6661 301.905 12.69 301.093 11.421C300.332 10.152 299.951 8.78536 299.951 7.32113V0.0732099H303.756V7.32113C303.756 8.15086 303.959 8.90737 304.365 9.59068C304.822 10.2252 305.405 10.7377 306.115 11.1281ZM322.705 15.3012C323.771 14.4226 324.608 13.6661 325.216 13.0316C325.825 12.3971 326.282 11.787 326.586 11.2013C326.891 10.6156 327.068 10.0299 327.119 9.44426C327.17 8.80976 327.195 8.10205 327.195 7.32113V0.0732099H331V7.32113C331 8.4437 330.949 9.41986 330.848 10.2496C330.746 11.0793 330.493 11.909 330.087 12.7388C329.681 13.5197 329.047 14.3738 328.184 15.3012C327.373 16.1797 326.231 17.2047 324.76 18.376L306.115 33.4576C305.507 33.9456 305.05 34.3605 304.746 34.7022C304.441 34.995 304.213 35.2634 304.061 35.5075C303.909 35.7515 303.807 36.02 303.756 36.3128C303.756 36.5568 303.756 36.8741 303.756 37.2646V44H299.951V37.2646C299.951 36.5324 299.977 35.9223 300.028 35.4343C300.078 34.9462 300.23 34.4581 300.484 33.9701C300.738 33.482 301.169 32.9695 301.778 32.4326C302.387 31.8469 303.224 31.1148 304.289 30.2363L322.705 15.3012ZM321.411 14.3494L303.528 28.9917C302.311 29.9678 301.372 30.7976 300.712 31.4809C300.053 32.1154 299.546 32.7255 299.19 33.3111C298.835 33.8968 298.607 34.4825 298.506 35.0682C298.455 35.6539 298.429 36.386 298.429 37.2646V44H294.625V37.2646C294.625 36.0932 294.65 35.0926 294.701 34.2629C294.802 33.4332 295.081 32.6278 295.538 31.8469C295.994 31.066 296.705 30.2119 297.668 29.2845C298.632 28.3572 299.977 27.1858 301.702 25.7704L319.509 11.1281C320.524 10.3472 321.158 9.7371 321.411 9.29784C321.716 8.80976 321.868 8.15086 321.868 7.32113V0.0732099H325.673V7.32113C325.673 8.05324 325.622 8.68774 325.521 9.22462C325.47 9.7127 325.293 10.2008 324.988 10.6889C324.734 11.1769 324.329 11.7138 323.771 12.2995C323.213 12.8364 322.426 13.5197 321.411 14.3494ZM303.528 15.6672L308.475 18.3028L305.355 20.8652L301.702 18.8153C299.52 17.6439 297.795 16.0333 296.527 13.9834C295.259 11.9334 294.625 9.7127 294.625 7.32113V0.0732099H298.429V7.32113C298.429 9.02939 298.886 10.64 299.799 12.1531C300.712 13.6661 301.955 14.8375 303.528 15.6672ZM327.195 44V37.2646C327.195 35.5563 326.738 33.97 325.825 32.5058C324.963 30.9928 323.72 29.8214 322.096 28.9917L317.226 26.3561L320.422 23.7937L323.999 25.7704C326.13 26.9906 327.829 28.6256 329.098 30.6755C330.366 32.6766 331 34.873 331 37.2646V44H327.195ZM325.673 44H321.868V37.2646C321.868 36.4836 321.64 35.7515 321.183 35.0682C320.777 34.3849 320.219 33.848 319.509 33.4576L312.888 29.8702L316.008 27.381L321.411 30.2363C322.731 30.9684 323.771 31.9689 324.532 33.2379C325.293 34.4581 325.673 35.8003 325.673 37.2646V44Z"
       id="path16" />
  </mask>
  <defs
     id="defs77">
    <linearGradient
       id="paint0_linear"
       x1="331"
       y1="22"
       x2="2.44977e-06"
       y2="22"
       gradientUnits="userSpaceOnUse">
      <stop
         offset="0.0729167"
         stop-color="#7B8EB7"
         id="stop37" />
      <stop
         offset="1"
         stop-color="#9795B8"
         id="stop39" />
    </linearGradient>
    <linearGradient
       id="paint1_linear"
       x1="331"
       y1="22"
       x2="2.44977e-06"
       y2="22"
       gradientUnits="userSpaceOnUse">
      <stop
         offset="0.0729167"
         stop-color="#7B8EB7"
         id="stop42" />
      <stop
         offset="1"
         stop-color="#9795B8"
         id="stop44" />
    </linearGradient>
    <linearGradient
       id="paint2_linear"
       x1="331"
       y1="22"
       x2="2.44977e-06"
       y2="22"
       gradientUnits="userSpaceOnUse">
      <stop
         offset="0.0729167"
         stop-color="#7B8EB7"
         id="stop47" />
      <stop
         offset="1"
         stop-color="#9795B8"
         id="stop49" />
    </linearGradient>
    <linearGradient
       id="paint3_linear"
       x1="331"
       y1="22"
       x2="2.44977e-06"
       y2="22"
       gradientUnits="userSpaceOnUse">
      <stop
         offset="0.0729167"
         stop-color="#7B8EB7"
         id="stop52" />
      <stop
         offset="1"
         stop-color="#9795B8"
         id="stop54" />
    </linearGradient>
    <linearGradient
       id="paint4_linear"
       x1="331"
       y1="22"
       x2="2.44977e-06"
       y2="22"
       gradientUnits="userSpaceOnUse">
      <stop
         offset="0.0729167"
         stop-color="#7B8EB7"
         id="stop57" />
      <stop
         offset="1"
         stop-color="#9795B8"
         id="stop59" />
    </linearGradient>
    <linearGradient
       id="paint5_linear"
       x1="331"
       y1="22"
       x2="2.44977e-06"
       y2="22"
       gradientUnits="userSpaceOnUse">
      <stop
         offset="0.0729167"
         stop-color="#7B8EB7"
         id="stop62" />
      <stop
         offset="1"
         stop-color="#9795B8"
         id="stop64" />
    </linearGradient>
    <linearGradient
       id="paint6_linear"
       x1="331"
       y1="22"
       x2="2.44977e-06"
       y2="22"
       gradientUnits="userSpaceOnUse">
      <stop
         offset="0.0729167"
         stop-color="#7B8EB7"
         id="stop67" />
      <stop
         offset="1"
         stop-color="#9795B8"
         id="stop69" />
    </linearGradient>
    <linearGradient
       id="paint7_linear"
       x1="331"
       y1="22"
       x2="2.44977e-06"
       y2="22"
       gradientUnits="userSpaceOnUse">
      <stop
         offset="0.0729167"
         stop-color="#7B8EB7"
         id="stop72" />
      <stop
         offset="1"
         stop-color="#9795B8"
         id="stop74" />
    </linearGradient>
  </defs>
  <text
     xml:space="preserve"
     style="font-style:normal;font-weight:normal;font-size:95.9155px;line-height:1.25;font-family:sans-serif;fill:#999999;fill-opacity:1;stroke:none;stroke-width:2.39789"
     x="-4.0875115"
     y="63.401905"
     id="text715"
     transform="scale(1.2622191,0.79225546)"><tspan
       sodipodi:role="line"
       id="tspan713"
       style="stroke-width:2.39789;fill:#999999"
       x="-4.0875115"
       y="63.401905">GUMA</tspan></text>
</svg>
